<?xml version="1.0" encoding="UTF-8"?><svg id="uuid-5dd27030-a9a9-48e2-a255-cf97bc1b2cf2" xmlns="http://www.w3.org/2000/svg" viewBox="0 0 243.76 347.36"><g id="uuid-928ea00c-387f-401c-bdad-74298adab3ec"><rect width="243.76" height="347.36" rx="13.06" ry="13.06" transform="translate(243.76 347.36) rotate(-180)" style="fill:#90a959;"/><rect x="9.91" y="9.09" width="223.94" height="329.18" transform="translate(243.76 347.36) rotate(-180)" style="fill:#fffdf0;"/><text transform="translate(154.87 32.28) scale(.97 1)" style="fill:#40312b; font-family:EuclidCircularB-Bold, &apos;Euclid Circular B&apos;; font-size:18.82px; font-weight:700;"><tspan x="0" y="0" style="letter-spacing:-.04em;">L</tspan><tspan x="9.73" y="-.07" style="letter-spacing:-.04em;">a</tspan><tspan x="20.53" y="-.05" style="letter-spacing:-.03em;">d</tspan><tspan x="31.58" y="0" style="letter-spacing:-.03em;">y</tspan><tspan x="41.93" y=".03" style="letter-spacing:-.04em;">b</tspan><tspan x="52.73" y=".08" style="letter-spacing:-.05em;">i</tspan><tspan x="56.93" y=".13" style="letter-spacing:-.04em;">r</tspan><tspan x="63.78" y=".14">d</tspan></text><text transform="translate(44.63 184.54) scale(.97 1)" style="fill:#40312b; font-family:AdobeHandwriting-Ernie, &apos;Adobe Handwriting&apos;; font-size:17.01px;"><tspan x="0" y="0">C. Septempunctata</tspan></text><text transform="translate(15.9 32.14)" style="fill:#40312b; font-family:EuclidCircularB-Bold, &apos;Euclid Circular B&apos;; font-size:9px; font-weight:700;"><tspan x="0" y="0">L</tspan><tspan x="4.97" y="0" style="letter-spacing:-.02em;">E</tspan><tspan x="9.95" y="0" style="letter-spacing:0em;">GEN</tspan><tspan x="29.08" y="0" style="letter-spacing:-.03em;">D</tspan><tspan x="35.22" y="0">A</tspan><tspan x="41.97" y="0" style="letter-spacing:-.06em;">R</tspan><tspan x="47.41" y="0" style="letter-spacing:-.02em;">Y</tspan></text><text transform="translate(15.9 290.66)" style="fill:#40312b; font-family:EuclidCircularB-Bold, &apos;Euclid Circular B&apos;; font-size:14px; font-weight:700;"><tspan x="0" y="0" style="letter-spacing:-.04em;">F</tspan><tspan x="7.03" y="0">u</tspan><tspan x="15.3" y="0" style="letter-spacing:0em;">n</tspan><tspan x="23.65" y="0" style="letter-spacing:-.01em;">f</tspan><tspan x="29.37" y="0" style="letter-spacing:0em;">act</tspan></text><text transform="translate(26.12 209.47)" style="fill:#40312b; font-family:EuclidCircularB-Medium, &apos;Euclid Circular B&apos;; font-size:11px; font-weight:500;"><tspan x="0" y="0" style="letter-spacing:-.03em;">A</tspan><tspan x="7.75" y="0">GE</tspan></text><text transform="translate(26.12 236.71)" style="fill:#40312b; font-family:EuclidCircularB-Medium, &apos;Euclid Circular B&apos;; font-size:11px; font-weight:500;"><tspan x="0" y="0">DI</tspan><tspan x="11.11" y="0" style="letter-spacing:-.07em;">A</tspan><tspan x="18.41" y="0" style="letter-spacing:-.03em;">T</tspan></text><text transform="translate(26.12 264.08)" style="fill:#40312b; font-family:EuclidCircularB-Medium, &apos;Euclid Circular B&apos;; font-size:11px; font-weight:500;"><tspan x="0" y="0">ADRESSE</tspan></text><rect x="15.9" y="38.5" width="211.96" height="126.21" rx="10.57" ry="10.57" style="fill:#90a959;"/><path d="M120.51,164.83h-3.65c-1.29-.38-2.64-.85-3.99-1.45l-6.41-2.82c-2.91-1.29-5.35-6.14-6.66-9.41l-1.22-5.32c-.31.74-.93,1.74-.78,2.57.17,1.02-.09,1.97,0,2.92.28,3.09-.29,7.37-1.5,10.35-.27.64-.55,1.08-1.07,1.52-.21.47-.23,1.06-.19,1.64h-3.78c.15-.6.3-1.2.37-1.76-.55-.6-1.36-1.32-1.54-2.2-.19-.97-.91-.86-1.69-.96l-2.95-.35-5.24-1.64c-1.28-.39-2.39-.9-3.53-1.58l-5.45-3.28-2.67-2.45c-1.06-.97-.64-2.55-.66-4.2-1.38,1.21-3.08,1.78-5.04,1.49-1.56,1.37-3.37,2.3-5.41,2.37-1.89-.47-3.25-1.57-4.64-2.92.12,1.47.48,3.01,1.37,4.04,1.52,1.76,2.47,5.28,2.12,7.26-.12.66.64,1.28.82,1.85l-.17,2.06c.32.7.21,1.61-.22,2.28-.35.53-.93.92-1.65.93-.41,0-.61-.44-.66-.93-.05-.47.01-.99.14-1.26.78-1.68.7-3.17.28-4.8-.73-2.82-1.11-5.67-2.59-8.24-.73-1.25-1.82-2.37-1.94-3.92-.07-.91.06-1.73-.83-2.41.23-.23.47-.48.38-.65-.11-.2-.44-.68-.64-.74-3.98-1.09-5.2-4.78-6.39-8.47-.62-1.94.45-5.09,1.72-6.77.23-.31.09-1.12-.2-1.36l-1.84-1.53c-1.47-1.23-2.67-2.59-4.02-3.95l-3.44-3.4c-2.09-2.07-6.93-1.89-9.58-4.56-.38-.37-.36-.86-.2-1.25.52-1.37,3.75.36,6.09,1.47,2.5,1.18,4.77,2.87,6.75,4.78l2.64,3.02,3.34,3.31c.12.11.35.2.44.22.09.03.04-.37.1-.46.7-1.12.27-2.22.36-3.37l.19-2.37c.28-3.4,1.84-3.46,5.67-4.66l5.48-1.73,2.43.06c.27.34.63-.11.3-.28-.51-1.17-2.34-2.39-2.08-3.77.82-4.6,2.93-5.47,3.81-8.23l.78-.99c.17-.74.83-1.13,1.16-1.68,1.18-1.9,2.34-3.68,4.03-5.28-.79-2.9-.13-5.75-1.59-8.53-.6-.19-1.14-.21-1.79-.25-.57-.75-1.4-.92-2.35-.98l-3.08-.22-4.11-.29-6.85-.85c-1.81-.22-6.55-4.16-6.61-4.49-.04-.23.09-.58.45-.94l-2.71-2.81c-1.43-1.47-1.55-3.73-2.75-5.2-1.06-1.26-2.88-1.81-3.91-3.33-.65-.96-.65-2.25.33-3.21-.25-.32-.44-.88-.81-1.11l-3.17-1.98c-.49-.3-1.36-1.02-1.21-1.69.21-1,3.35-3.46,3.88-2.29.65,1.42,1.39,2.59,2.52,3.67.86.84,1.23,1.93,1.68,2.99.3.7,1.15,1.32,1.66,1.85.81.81,1.11,1.55,1.68,2.5l1.98,3.34c.73,1.23,1.65,2.17,1.95,3.64,1.04.29,1.41,1.14,1.45,1.92,2.12-.35,4.2-.73,6.23-.29l4.91,1.86,3.23,1.08c1.39.46,2.67,1.59,4.17,1.59,2.12-.01,4.18.83,5.72,2.26.91.83,2.05,1.3,2.74,2.45l2.79,4.61c2.72-.36,4.44,1.01,6.65,2.75l3.73,2.97,1.92,1.62c.55.47.68,1.26,1.72,1.15h.01c.05,0,.16.13.15.2-.07.48.46.31.27-.03l-.29-.25-1.57-5.45c-1.12-3.93.15-8.09-.26-10.24-.6-3.15.26-6.62,1.63-9.47,1.08-2.24,2.13-4.24,3.55-6.21l2.89-4.03,2.97-3.71,2.61-2.2c-1.71-1.17-3.57-2.11-4.65-3.87l-3.57-5.9c-.91-1.49-3.13-2.75-1.56-4.9-.71-2.38-4.03-4.44-4.22-7-.05-.67.99-.52,1.31-.45.47-.79,1.23-1.41,1.89-1.72.44-.22.83-.3,1.08-.19.09.03.16.1.21.19.68.99-.11,5.1,2.92,7.79,2.42,2.13,2.61,6.16,3.64,7.41l6.47,7.86c.28.33,1.02.35,1.13.93.3,1.64-.57,2.81-1.37,4.12-1.08,1.77-1.87,3.64-3.24,5.26l-7.03,8.28c-.68.8-1.74,1.3-1.82,2.54l5.65-4.33,3.41-2.48,3.31-2.33,6.32-3.67c5.85-3.39,22.77-9.67,29.55-10.67l5.58-.83c-.83-3.07-7.39,17.55-5.9,15.96,2.93-3.11,6.57-5.18,10.54-6.65l4.34-1.6c2.35-.88,11.44-3.28,12.61-3.18.94.07,1.98-.26,3.08-.07.45.07,1.4-.41,1.84.04.69-1.07-.37-1.85-.36-2.55.01-.27.02-.51.02-.75.03-.7.03-1.28-.26-2.04-.61-1.62-.22-3.5-.05-5.27.17-1.86,1.45-3.44,2.04-5.19-.3-.62-.25-1.4-.2-2.11.26-3.78-.82-7.32,1.92-9.6l3.23-.28c.69-.05,2.23-.03,2.4.7.18,1.06-1.44,1.53-1.95,2.14-1.56,1.86-1.42,4.34-.77,6.54,1.08,3.66-1.77,4.71-1.47,7.65.2,2.03-.36,4.54-.64,7.45-.11,1.2-.18,2.47-.12,3.8.01.17-.45.5-.38.64.05.14.42.42.36.61-.5,1.68-2.07,2.35-3.53,2.9l-2.8,1.07-6.51,2.09-3.28.61c-2.76.51-5.42,1.13-8.15,1.84-2.52.64-4.75,1.31-7.01,2.77-1.15.75,6.27-19.46,6.49-17.77l5.45.16,3.56.26,6.02.61c4.54.45,7.63,1.13,11.88,2.77l6.48,2.51,5.52,2.66,4.5,2.44,7.9,4.89,2.86,2.72,3.89,3.86c2.43,2.42,4.67,4.91,6.38,7.93l2.6,4.6c.6,1.07,1.01,2.07,1.41,3.22.3.89.81,1.62.36,2.63-.52,1.17.12,2.19.79,3.07,1.07,1.39,1.15,3.18,1.02,4.88l-.33,4.34c-.15,2.05-1.04,4.02-1.7,6l-1.6,4.79-4.3,9.73-3.5,6.23c-1.65,2.97-3.62,5.47-5.63,8.18-2.69,3.61-5.37,6.98-8.83,9.9-3.01,2.55-7.17,5.52-10.55,7.59l-3.96,2.41-10.91,5.05c-.18.09-.75.06-.84.3-.02.04.03.59.2,1.3h-47.87Z" style="fill:#fff;"/><path d="M25.47,112.79c2.66,2.67,7.49,2.49,9.58,4.56l3.44,3.4c1.36,1.36,2.55,2.72,4.02,3.95l1.84,1.53c.29.23.44,1.05.2,1.36-1.27,1.68-2.34,4.82-1.72,6.77,1.2,3.69,2.41,7.38,6.39,8.47.2.05.53.53.64.74.09.17-.15.42-.38.65.9.68.76,1.5.83,2.41.12,1.55,1.22,2.67,1.94,3.92,1.48,2.57,1.87,5.42,2.59,8.24.43,1.63.5,3.13-.28,4.8-.13.27-.19.79-.14,1.26.05.49.26.93.66.93.73-.01,1.3-.39,1.65-.93.44-.67.54-1.58.22-2.28l.17-2.06c-.18-.57-.94-1.18-.82-1.85.34-1.97-.61-5.5-2.12-7.26-.89-1.04-1.25-2.57-1.37-4.04,1.39,1.36,2.75,2.45,4.64,2.92,2.04-.06,3.85-1,5.41-2.37,1.95.29,3.66-.29,5.04-1.49.02,1.65-.39,3.23.66,4.2l2.67,2.45,5.45,3.28c1.14.68,2.25,1.18,3.53,1.58l5.24,1.64,2.95.35c.78.1,1.49-.01,1.69.96.18.88.98,1.6,1.54,2.2-.07.57-.22,1.16-.37,1.76h3.78c-.04-.59-.02-1.17.19-1.64.51-.44.8-.88,1.07-1.52,1.22-2.98,1.78-7.26,1.5-10.35-.09-.95.17-1.9,0-2.92-.15-.83.47-1.84.78-2.57l1.22,5.32c1.31,3.28,3.75,8.12,6.66,9.41l6.41,2.82c1.36.6,2.7,1.07,3.99,1.45h3.65l-3.98-.98-2.44-.92-5.76-2.34c-.95-.38-1.36-.72-2.07-1.28-2.06-1.65-2.83-2.47-4.1-4.92-1.36-2.63-2.18-5.23-2.56-8.21l-1.32-10.34c-.28-2.1-.39-4.08-.76-6.18l-.98-5.62c1.23.17,3.25,2.57,3.91,3.71,1.71,3.03,5.08,4.99,8.63,4.43,2.51-.39,6.01-3.31,5.08-5.93-.45-1.29-1.09-2.66-.74-4.07l-.04-3.36c.45-1.26.82-1.93.53-3.31l.36-4.77c-.27-1.53-1.15-3.22-1.68-4.62-1.73-.95-2.76-2.27-4.13-3.63-1.37-1.36-4.11-2.37-5.93-1.94-1.84.43-5.15,3.46-5.48,5.19-.29,1.52-.63,2.7-1.04,4.15-.25.86-.35,1.85-1.07,2.56-.23.23.09,1.14-.84,1.25.09-.8-.3-1.45-.51-2.19l-1.87-6.33-3.39-10.14-1.79-6.14c-.81-2.76-.51-8.12,1.4-10.62,1.92-2.51,4.4-4.31,6.82-6.23.75-.6,1.46-1.39,2.28-1.78,1-.47,1.58-1.11,2.44-1.72l3.28-2.36,5.76-3.41,7.61-3.64,6.41-2.49,6.82-2.53c7.26-2.69,17.6-3.98,25.39-3.33l9.48.78c1.28.11,2.39.16,3.68.45l2.29.51,1.89.43,3.6,1.08c-.81.53-1.88.59-2.87,1.06l-2.07.98c-.67.32-.98,1.15-.93,1.8.04.6.39,1.36,1.04,1.76l6.82,4.4c1.75,1.13,3.37,2.03,5.34,2.67,1.54.5,2.83,1,4.61.8,1.37-.15,2.81-1.12,3.17-2.65.32-1.36-.28-3.11-.9-4.09l.09-.17c.74.11,1.36.47,2.04.9l7.75,4.77,1.82,1.53c1.2,1,2.14,2.07,3.25,3.18,3,3,6.21,5.78,8.33,9.53.6,1.08,1.16,2.04,1.76,3.15l1.89,3.5.58,2.28c.18.7.62,1.91-.01,2.67-1.3.82-3.23.77-4.83,1.17-1.72.43-3.21,1.02-4.97,1.14-.19.01-.35.17-.44.21-.14.05-.12.6.12.59,2.04-.04,3.84-.79,5.78-1.18,1.52-.3,2.92-.46,4.42-.95,3.21,3.59,1.84,5.87,1.9,8.17.07,2.27-.59,4.12-1.29,6.2l-2.16,6.39-2.65,5.95c-2.24,5.03-4.79,9.83-8,14.38.53-2.59.28-5.03-1.61-6.73-.8-.71-1.94-.42-2.83-.48-2.93-.18-4.9,2.49-6.43,5.26l-2.57,4.62c-1.71,2.34-3.06,5.1-2.58,8.05.21,1.3,1.13,2.5,2.38,2.36l2.89-.33c-1.58,1.6-3.77,3.2-5.72,4.51l-2.63,1.75c-2.61,1.74-5.11,3.51-7.98,4.87-4.49,2.11-11.1,5.26-16.45,6.75h6.66c-.17-.71-.22-1.26-.2-1.3.1-.23.66-.21.84-.3l10.91-5.05,3.96-2.41c3.38-2.07,7.54-5.04,10.55-7.59,3.46-2.92,6.14-6.3,8.83-9.9,2.02-2.71,3.98-5.22,5.63-8.18l3.5-6.23,4.3-9.73,1.6-4.79c.66-1.97,1.55-3.95,1.7-6l.33-4.34c.13-1.7.04-3.49-1.02-4.88-.67-.89-1.31-1.9-.79-3.07.45-1-.06-1.74-.36-2.63-.39-1.15-.81-2.16-1.41-3.22l-2.6-4.6c-1.71-3.02-3.95-5.51-6.38-7.93l-3.9-3.86-2.86-2.72-7.9-4.89-4.5-2.44-5.52-2.66-6.48-2.51c-4.25-1.64-7.34-2.33-11.88-2.77l-6.02-.61-3.56-.26-5.45-.16c-.21-1.7-7.64,18.51-6.49,17.77,2.26-1.46,4.49-2.13,7.01-2.77,2.73-.7,5.39-1.32,8.15-1.84l3.28-.61,6.51-2.09,2.8-1.07c1.46-.55,3.03-1.23,3.53-2.9.05-.19-.31-.47-.36-.61-.06-.14.39-.47.38-.64-.06-1.33.01-2.6.12-3.8.28-2.91.84-5.42.64-7.45-.3-2.95,2.55-3.99,1.47-7.65-.65-2.2-.79-4.68.77-6.54.51-.62,2.13-1.09,1.95-2.14-.17-.74-1.71-.76-2.4-.7l-3.23.28c-2.74,2.28-1.66,5.83-1.92,9.6-.04.71-.1,1.49.2,2.11-.59,1.75-1.87,3.33-2.04,5.19-.17,1.77-.55,3.65.05,5.27.29.76.29,1.33.26,2.04,0,.23-.01.48-.02.75-.01.7,1.06,1.48.36,2.55-.44-.45-1.39.03-1.84-.04-1.1-.18-2.14.15-3.08.07-1.17-.1-10.27,2.3-12.61,3.18l-4.34,1.6c-3.97,1.47-7.61,3.54-10.54,6.65-1.49,1.59,5.07-19.04,5.9-15.96l-5.58.83c-6.78,1-23.7,7.28-29.55,10.67l-6.32,3.67-3.31,2.33-3.41,2.48-5.64,4.33c.09-1.24,1.14-1.74,1.82-2.54l7.03-8.28c1.38-1.62,2.17-3.49,3.24-5.26.8-1.31,1.66-2.48,1.37-4.12-.11-.58-.85-.6-1.13-.93l-6.47-7.86c-1.02-1.25-1.22-5.27-3.64-7.41-3.03-2.69-2.24-6.8-2.92-7.79-.05-.1-.13-.16-.21-.19-.25-.11-.64-.03-1.08.19-.66.31-1.42.93-1.89,1.72-.32-.07-1.37-.22-1.31.45.18,2.56,3.5,4.62,4.22,7-1.57,2.14.65,3.4,1.56,4.9l3.57,5.9c1.08,1.76,2.95,2.7,4.65,3.87l-2.61,2.2-2.97,3.71-2.89,4.03c-1.42,1.97-2.48,3.97-3.55,6.21-1.38,2.85-2.23,6.32-1.63,9.47.41,2.16-.86,6.32.26,10.24l1.57,5.45-.13.07h-.01c-1.04.11-1.16-.68-1.72-1.15l-1.92-1.62-3.73-2.97c-2.21-1.74-3.93-3.12-6.65-2.75l-2.79-4.61c-.69-1.15-1.84-1.62-2.74-2.45-1.54-1.43-3.6-2.27-5.72-2.26-1.5,0-2.79-1.13-4.17-1.59l-3.23-1.08-4.91-1.86c-2.03-.44-4.11-.06-6.23.29-.04-.78-.42-1.63-1.45-1.92-.3-1.47-1.23-2.41-1.95-3.64l-1.98-3.34c-.57-.95-.86-1.69-1.68-2.5-.51-.52-1.37-1.14-1.66-1.85-.45-1.06-.81-2.14-1.68-2.99-1.13-1.08-1.87-2.25-2.52-3.67-.53-1.16-3.67,1.29-3.88,2.29-.15.66.71,1.39,1.21,1.69l3.17,1.98c.37.23.57.79.81,1.11-.98.96-.98,2.25-.33,3.21,1.02,1.52,2.85,2.07,3.91,3.33,1.21,1.46,1.32,3.72,2.75,5.2l2.71,2.81c-.36.36-.49.7-.45.94.05.33,4.79,4.27,6.61,4.49l6.85.85,4.11.29,3.08.22c.95.06,1.78.23,2.35.98.65.03,1.2.05,1.79.25,1.46,2.77.8,5.62,1.59,8.53-1.7,1.6-2.85,3.38-4.03,5.28-.33.54-.99.94-1.16,1.68l-.78.99c-.87,2.75-2.99,3.63-3.81,8.23-.26,1.38,1.57,2.59,2.08,3.77.33.17-.03.62-.3.28l-2.43-.06-5.48,1.73c-3.83,1.21-5.39,1.26-5.67,4.66l-.19,2.37c-.1,1.15.34,2.25-.36,3.37-.05.09-.01.49-.1.46-.09-.02-.32-.12-.44-.22l-3.34-3.31-2.64-3.02c-1.98-1.91-4.26-3.6-6.75-4.78-2.35-1.11-5.57-2.84-6.09-1.47-.16.38-.18.88.2,1.25ZM55.95,160.21c.69.63.33,1.33.31,2.12-.01.44.03.85-.02,1.24,0,.1-.02.19-.04.29-.04.15-.1.29-.17.43-.04.06-.09.13-.15.19-.05.06-.12.13-.19.18-.06.06-.15.12-.25.17-.01.01-.02.01-.03.02v-.02c-.19-1.39.66-2.74.54-4.62ZM201.87,138.72c-1.44,1.68-2.61,3.61-4.22,5.21s-5.34,3.53-6.96,2.06c-1.4-1.68-.66-4.93.5-6.63,1.44-2.11,2.45-4.01,3.62-6.21,1.06-1.98,2.31-3.98,4.46-5.21l3.63-.12c3.19,2.67,1.62,7.8-1.04,10.9ZM189.75,60.34s.05.05.06.09c.04.1.02.2-.06.21-.06.02-.17-.02-.32-.18l.32-.12ZM179.66,55.65c1.59.64,3.73,1.06,4.19,2.21,3,1.47,6.42,3.36,6.24,6.55-.07,1.45-1.56,2.16-2.67,2.24-1.59.14-2.72-.3-4.15-.74-2.11-.64-3.76-1.68-5.61-2.85l-4.24-2.68c-1.17-.75-2.91-1.75-2.88-2.73.02-.53.32-.86.93-1.1l3.37-1.31c1.81-.7,3.24-.21,4.81.41ZM89.84,74.43c.11-.06.45-.04.39.35-.18.33-.48.15-.52.03-.06-.15-.01-.3.13-.38ZM50.93,137.43s.64.22,1.48.66c.2.11.41.22.61.35.2.12.43.29.66.48.15.13.29.26.42.39.19.21.36.44.49.69.57,1.09.31,2.71-1.01,3.02-.53.13-1.74-.26-2.18-.59-1.94-1.44-.78-4.9-.47-5.02ZM51.92,148.46c-.62-.94-.94-1.72-.79-3.08.98.65,1.16,1.91.79,3.08ZM83.5,157.96l-4.54-1.38-3.96-2.16c-2.4-1.3-6.61-4.22-6.42-6.06.18-1.91.37-3.82-.64-5.75.67-.21,1.46-.06,2.16.32,1.27.7,2.61.69,3.95,1.22l3.85,1.53c1.88.74,2.46,3.03,3.11,4.81l1.29,3.56c.68,1.87,2.91,2.85,4.42,4.31-1.1-.01-2.25-.12-3.21-.41ZM96.78,109.88l1.08-3.98c.43-1.57,1.84-2.38,2.82-3.3,1.42-1.34,2.79-1.59,4.6-1,2.91.95,2.95,2.04,5.14,4.08,1.16.6,1.89,1.34,2.23,2.76.25,1.05.96,2.1.84,3.36l-.16,1.77c-.1,1.07-.57,2.02.02,3.14l-.76,1.8.02,3.18c.01,1.75.17,3.44.82,5.06.77,1.92-2.79,4.65-5.22,4.73-6.27.21-6.83-5.69-10.77-7.93-.69-.38-1.29-.43-1.49-1.4l-1.49-7.2c1.71-1.73,1.9-3.5,2.32-5.07ZM87.39,95.59l.27-.03c.19.34-.34.51-.27.03ZM68.76,90.92l3.38-2.58c.74-.57,1.85-1.06,2.82-.64l1.92.84,6.64,5.13,1.76,1.6c.99.9,2.3,1.61,3.02,2.86l2.35,6.63c.62,1.74,1.04,3.39,1.55,5.16l1.4,4.73,2.82,13.54c.61,2.91.75,5.71,1.13,8.6l1.04,7.79c-.58.32-.7.94-.97,1.52-.89,1.9-1.47,3.81-1.75,5.89l-.69,2.68c-.32,1.24-.8,2.87-1.98,3.63-1.78,1.13-4,.86-6.08.75.29-.5.54-.68.58-1.01.02-.3-.34-.61-.64-.75-1.15-.51-1.88-1.37-2.72-2.13-.89-.81-1.33-1.53-1.75-2.7l-.75-2.07c-.7-2-1.55-4.26-3.41-5.47-2.66-1.73-8.25-1.91-10.71-4.17-1.95-2.52-2.89-5.51-3.93-8.36-.35-1-.77-1.93-.9-2.98-.25-1.9-.65-3.55-1.15-5.47-2.12-8.15-.79-7.86,2.85-12.92l4.15-5.78c.97-1.34.53-3-.36-4.29-.83-1.2-.7-2.26-.39-3.52.16-.65-.16-1.32.52-2.01.65-.65,1.24-1.47,1.31-2.76-1.39.11-2.5.6-3.8,1.36.53-1.42,1.64-2.22,2.77-3.07ZM58.27,109.16c-.7-.64-.48-1.98-.14-2.81l.74-1.82c1.05-1.47,1.72-2.98,2.7-4.49l.99-1.55,2.08-2.84,3.91-2.12c.15.67-.42,1.05-.79,1.44-.63.68-1.39,4.75-.21,6.22,1.16,1.46.91,2.98-.14,4.46l-1.92,2.71-4.94,6.47c.17-2.44-.67-4.23-2.27-5.67ZM45.2,124.82l1.39,2.97,1.34,1.25c.32.3,1.27.39,1.52-.04,1.37-2.37,1.85-5.4.36-7.78-1.02-.59-2.88.23-3.53,1.14-.79-2.05-.57-5.65.64-6.42,1.25-.8,2.79-1.18,4.16-1.62l4.93-1.6c1.26-.41,2.53-.04,3.79.31l.19,4.92c-.12,3.01.91,5.62,1.46,8.5.81,4.24,1.98,8.28,3.92,12.15.61,1.22,1.31,2.12,1.71,3.49l.79,2.82c-1.13,2.13-3.29,2.05-5.26,2.47-1.57.33-3.8,3.41-6.93,1.24-1.93-1.36-3.57-3.3-5.06-5.28,1.29-.1,2.37,1,3.46.52,1.88-.82,1.97-3.56.77-5.04-.82-1.01-1.66-1.25-2.69-1.73-.62-.28-.9-.71-1.58-.48-1,.34-1.34,3.36-.69,5.46-3.45-.23-5.27-4.38-6.11-7.6-.29-1.1-.58-1.75-.12-2.9.36-.92.44-2.32,1.24-3.07.75-.73.49-2.18.31-3.67ZM47.31,122.4c.42-.43,1.45-.43,2.05-.46.95,2.01.52,4.31-.43,6.26-.81.22-1.43-.62-1.81-1.22-.91-1.45-1.1-3.27.19-4.59ZM30.2,113.43c1.06.5,2.29.61,2.93,1.81l-4.75-1.58c-.76-.25-1.55-.81-2.27-1.68,1.46-.04,2.71.8,4.09,1.44Z" style="fill:#40312b;"/><path d="M64.56,111c-3.64,5.06-4.97,4.77-2.85,12.92.5,1.92.91,3.57,1.15,5.47.13,1.05.54,1.97.9,2.98,1.04,2.85,1.97,5.84,3.93,8.36,2.46,2.26,8.06,2.44,10.71,4.17,1.87,1.22,2.71,3.48,3.41,5.47l.75,2.07c.42,1.17.86,1.89,1.75,2.7.84.77,1.57,1.62,2.72,2.13.3.14.66.45.64.75-.03.33-.29.51-.58,1.01,2.08.12,4.3.38,6.08-.75,1.18-.76,1.66-2.39,1.98-3.63l.69-2.68c.28-2.08.86-3.99,1.75-5.89.27-.58.39-1.2.97-1.52l-1.04-7.79c-.38-2.89-.52-5.69-1.13-8.6l-2.82-13.54-1.4-4.73c-.51-1.77-.93-3.43-1.55-5.16l-2.35-6.63c-.72-1.25-2.03-1.96-3.02-2.86l-1.76-1.6-6.64-5.13-1.92-.84c-.97-.42-2.08.07-2.82.64l-3.38,2.58c-1.13.85-2.24,1.65-2.77,3.07,1.3-.76,2.41-1.25,3.8-1.36-.07,1.29-.66,2.11-1.31,2.76-.68.68-.36,1.36-.52,2.01-.31,1.26-.44,2.33.39,3.52.9,1.29,1.33,2.95.36,4.29l-4.15,5.78ZM92.2,147.87l.79-5.23c.59-1.81,1.39-3.47,1.18-5.55-.22-2.24-1.15-4.95.79-5.35l1.13,4.68c.59,2.43-.42,4.77-1.26,7.07-.69,1.89-.63,6.32-2.4,5.67-.54-.19-.33-.7-.23-1.3ZM74.53,121.05c.16-2.59.52-4.84,1.59-7.18.76-1.63,1.38-3.48,2.58-4.81.1-.11.7-.07.7-.19l-.03-.57c-.02-.25.59-.69.89-.69.74-.03,1.76-1.21,3.62-.97.43.05.9.44,1.53.25.15-.05.38.52.48.63.11.12.33.11.6,0-.03.73.81.71,1.11,1.04,1,1.09,2,2.04,1.79,3.65l-.49,3.88c-.22,1.77-.61,4.26-1.13,5.81l-1.04,3.11c-.58,1.7.92,2.44-1.79,4.24.45.21.85.31,1.25.34l2.74.17c.32.02.67.39.72.68.12.91-2.85,1.98-6.02,1.02-1.4-.43-2.64-.98-4.17-.66-1,.21-2.34.55-3.39-.06-.8-.48-1.78-1.97-1.8-2.86l-.11-4.45c-.01-.83.34-1.6.38-2.36Z" style="fill:#1e2019;"/><path d="M43.77,134.46c.84,3.22,2.67,7.36,6.11,7.6-.65-2.1-.31-5.12.69-5.46.68-.23.96.2,1.58.48,1.02.48,1.87.72,2.69,1.73,1.21,1.47,1.11,4.22-.77,5.04-1.09.48-2.17-.62-3.46-.52,1.48,1.98,3.13,3.93,5.06,5.28,3.13,2.18,5.36-.91,6.93-1.24,1.97-.42,4.13-.33,5.26-2.47l-.79-2.82c-.25.8-1,1.26-1.5,1.92-.92,1.22-2.16,1.39-2.24,1.28l-1.08-1.23.75-2.9.95-1.92c.31-.23,1.13-.28,1.42-.64-1.93-3.87-3.11-7.92-3.92-12.15-.55-2.88-1.58-5.5-1.46-8.5l-.19-4.92c-1.26-.35-2.53-.71-3.79-.31l-4.93,1.6c-1.38.44-2.91.82-4.16,1.62-1.21.78-1.43,4.38-.64,6.42.65-.91,2.51-1.73,3.53-1.14,1.48,2.38,1,5.41-.36,7.78-.25.44-1.2.34-1.52.04l-1.34-1.25-1.39-2.97c.18,1.49.44,2.95-.31,3.67-.8.76-.87,2.16-1.24,3.07-.46,1.15-.17,1.8.12,2.9ZM51.94,117.83c.3-.79,2.28-.91,2.81-.33l2.11,2.38c1.02,1.16.23,3.39.77,4.88.18.47.65.62.57,1.29l-.28,2.22.19,2.86.96,2.32.23,2.08c.05.51-.63,1-.94,1.22-.3.21-1.3.15-1.41-.34-.28-1.37-.61-2.55-1.52-3.62-.85-.99-.86-2.05-1.07-3.22-.12-.66-.58-1.38-.48-2.2l-.47-2.03c.25-.98-.7-1.33-.81-1.95l-.38-2.11c-.11-.61.03-1.29-1.02-1.58.76-.43.43-1.06.74-1.86Z" style="fill:#1e2019;"/><path d="M67.94,142.62c.67-.21,1.46-.06,2.15.32,1.28.7,2.62.69,3.95,1.22l3.85,1.52c1.88.74,2.46,3.04,3.1,4.81l1.29,3.56c.68,1.88,2.91,2.85,4.42,4.32-1.1-.02-2.25-.12-3.21-.41l-4.54-1.38-3.95-2.16c-2.4-1.31-6.61-4.22-6.43-6.06s.37-3.83-.64-5.75Z" style="fill:#fefdf1;"/><path d="M64.64,95.65l3.9-2.12c.15.67-.42,1.04-.78,1.44-.63.68-1.4,4.75-.22,6.22s.91,2.98-.14,4.46l-1.91,2.71-4.95,6.47c.17-2.44-.67-4.23-2.27-5.66-.71-.64-.48-1.99-.15-2.81l.74-1.82c1.05-1.47,1.72-2.98,2.7-4.5l.99-1.54,2.09-2.84Z" style="fill:#fefdf1;"/><path d="M65.36,138.59c.61,1.22,1.32,2.12,1.7,3.49-.24.8-1,1.26-1.5,1.92-.92,1.22-2.15,1.39-2.24,1.29l-1.08-1.23.75-2.9.95-1.92c.31-.23,1.14-.28,1.42-.64Z" style="fill:#66665d;"/><path d="M51.4,142.45c-1.94-1.45-.78-4.9-.47-5.02-.09.04,2.73.81,3.66,2.59.57,1.09.31,2.7-1.01,3.02-.53.13-1.74-.26-2.17-.59Z" style="fill:#fefdf1;"/><path d="M47.31,122.4c.41-.42,1.45-.43,2.05-.46.95,2.01.52,4.31-.42,6.27-.81.22-1.44-.62-1.81-1.22-.91-1.45-1.1-3.26.19-4.59Z" style="fill:#fefdf1;"/><path d="M26.12,111.99c1.46-.03,2.71.8,4.08,1.45,1.06.5,2.3.61,2.94,1.82l-4.76-1.58c-.76-.25-1.54-.81-2.27-1.69Z" style="fill:#fff;"/><path d="M55.96,160.22c.7.62.33,1.33.31,2.12-.03.99.22,1.92-.85,2.51-.2-1.39.66-2.74.55-4.63Z" style="fill:#fff;"/><path d="M51.13,145.38c.98.65,1.16,1.91.79,3.08-.63-.94-.94-1.72-.79-3.08Z" style="fill:#fff;"/><path d="M85.4,106.88c.15-.05.39.52.49.64s.33.1.6,0c-.03.73.81.72,1.11,1.04,1.01,1.08,2,2.03,1.79,3.65l-.49,3.89c-.22,1.77-.61,4.26-1.13,5.81l-1.04,3.1c-.57,1.7.92,2.45-1.79,4.24.45.22.85.32,1.24.34l2.75.18c.31.02.67.39.71.68.12.91-2.85,1.99-6.02,1.02-1.39-.42-2.64-.98-4.17-.65-1.01.21-2.34.56-3.39-.07-.8-.48-1.78-1.97-1.8-2.86l-.11-4.44c-.02-.84.34-1.61.38-2.37.16-2.59.52-4.84,1.59-7.18.75-1.63,1.37-3.48,2.58-4.81.09-.1.7-.07.7-.19l-.03-.57c-.01-.24.59-.68.89-.69.74-.02,1.76-1.2,3.62-.97.43.05.9.44,1.53.25Z" style="fill:#66665d;"/><path d="M94.18,137.09c-.22-2.24-1.15-4.95.8-5.35l1.13,4.68c.59,2.44-.42,4.77-1.26,7.08-.69,1.89-.62,6.32-2.4,5.67-.54-.2-.33-.71-.24-1.31l.79-5.23c.59-1.81,1.39-3.47,1.18-5.55Z" style="fill:#66665d;"/><path d="M51.94,117.83c.3-.79,2.29-.92,2.81-.33l2.11,2.38c1.03,1.17.24,3.39.77,4.88.18.47.65.62.57,1.28l-.28,2.22.19,2.87.96,2.31.24,2.08c.06.51-.63,1-.93,1.22s-1.31.14-1.41-.34c-.28-1.37-.61-2.56-1.52-3.62-.85-1-.87-2.05-1.07-3.22-.11-.67-.58-1.38-.48-2.21l-.47-2.02c.24-.98-.71-1.34-.82-1.95l-.38-2.12c-.11-.61.04-1.29-1.02-1.58.76-.42.43-1.05.73-1.85Z" style="fill:#64655c;"/><path d="M180.98,152.1l-3.46,1.95c-1.78,1-3.5,1.81-5.47,2.45l-6.18,2.02-3.11.96-7.02,1.58c-.46.1-.92.09-1.42.17l-3.36.6c-1.46,2.04-5.29,2.05-8.27,1.88-.82-.05-1.84.49-2.53.25l-3.84-1.36-2.95-.67c-1.88-.44-3.43-1.38-4.94-2.53-.61-.47-1.24-.97-.95-1.89.72-.02,1.65-.36,2.25-.15.79.28,1.28.17,2.07.19l1.66.04c.46.01.89.39,1.34.07,1.2-1.26,3.06-1.55,4.81-.95,1.52-.53,3.02-.65,4.52-.27.99.43,1.94.83,2.91.93l1.55.15c.55.05,1.18-.25,1.74-.09,1.08.32,1.9-.27,2.84-.35l2.58-.23,1.62-.3c1.41-.26,2.72-.42,4.12-.73l2.29-.49,4.44-.93c1.16-.25,2.21-.67,3.34-.94,2.72-.66,5.23-1.52,7.73-2.76l6-2.98c.34-.17.78-.12.91.09.52.78-3.23,3.15-5.24,4.28ZM151.46,104.44l8.71-1.74,9.18-1.65,7.69-1.53,13.8-2.6c1.5-.28,2.93-.37,4.4-.7l4.3-.97c.34-.07.61-.12.72.11.1.23-.02.54-.38.62l-5.06,1.09-12.77,2.36-4.18.74-11.31,2.21-8.42,1.54-6.45,1.26c-4.38.85-8.77,1.64-13.05,3.07-.26-.18-.23-.66-.06-.77,4.28-1.5,8.53-2.16,12.9-3.02ZM137.17,75.14c2.37-1.9,5.51-2.28,8.05-.96,1.88.96,3.11,2.21,3.96,4.07.44.95.89,1.66.77,2.87l-.22,2.54c-.27,2.86-1.64,5.55-4.51,5.81l-3.02.27c-1.36.13-3.14-.23-4.22-1.07-1.16-.89-1.37-2.7-1.15-3.98l.5-3.08-.72-3.85.57-2.6ZM132.1,126.26l.31-1.66c.72-.2,1.01-.71,1.24-1.28,1.26-.48,2.37-1.2,3.14-2.16.85.19,1.44-.33,1.69-1.07l1.41.39c.67-.96,1.65-.96,2.69-1.17.44-.09.95-.51,1.49-.04l.09-.47c.03-.15.46.02.61.21l.27.35c.13.17.31.05.37-.1.04-.1-.13-.38-.05-.46.28-.19.73.21.9.35l.53-.55c.1-.1.32.07.5.22.55-.23,1.11.07,1.52.3.81-.36,1.78-.44,2.52-.04l1.65-.41,2.23.52.7-.39.47.55c1.38-.41,4.2.18,4.99.95.59.57,1.33.57,2.08.82.35.13.62.91,1.28.5.48,1.7,2.81,1.8,2.84,3.89,0,.38.04,1.21-.09,1.56-1.07,3.03-4.08,4.25-6.59,5.85,0,2.89-1.89,3.24-3.12,5.98-.53,1.18-1.73,1.64-2.91,2.27-1.69.89-4.27-.15-4.81-2.07l-.7-2.53-2.98.94-9,3.23c-2.36.85-4.42,1.8-6.54,3.21l-1.5.99c-.8.53-1.63.6-1.98,1.69l-2.4.12c-.19-.68-.98-1.71-.87-2.32.38-.84-.37-1.4-.41-1.85.18-.74.19-1.64.46-2.34l1.14-2.96c.12-.31.45-1.04.71-1.23.55-.38.33-.8.57-1.24l1.77-3.35c.45-.84.83-1.53,1.28-2.33l1.13-1.95c.3-.52.44-1.07,1.39-.96ZM130.81,109.63c.11-.05.38-.05.46-.02.09.03.15.2.2.51-1.6.93-3.41,1.14-5.24,1.63l-10.11,2.71c-.16.04-.58,0-.67-.06-.14-.09-.12-.38-.05-.6.1-.32.47-.11.68-.17l9.61-2.55c1.81-.48,3.47-.75,5.11-1.45ZM113.75,63.15c1.77-1.43,3.63-2.57,5.67-3.57,2.01-.97,4.18-.94,6.49-1.1.86-.06,1.41-.38,2.03.15,1.05.89,1.08,3.07-.11,4.26-.67.67-1.3,1.45-2.27,1.8-1.98,1.88-6.06,3.38-8.64,2.99-1.74-.27-4.79-3.21-3.16-4.52ZM189.75,60.64c-.06-.06-.17-.13-.32-.18.15.16.26.2.32.18ZM120.51,164.83l-3.98-.98-2.44-.92-5.76-2.34c-.95-.38-1.36-.71-2.07-1.28-2.06-1.65-2.83-2.47-4.1-4.92-1.36-2.63-2.18-5.23-2.56-8.21l-1.32-10.34c-.28-2.1-.39-4.08-.76-6.18l-.98-5.62c1.23.17,3.25,2.57,3.91,3.71,1.71,3.03,5.08,4.99,8.63,4.43,2.51-.39,6.01-3.31,5.08-5.93-.45-1.29-1.09-2.66-.74-4.07l-.04-3.36c.45-1.26.82-1.93.53-3.31l.36-4.77c-.27-1.53-1.15-3.22-1.68-4.62-1.73-.95-2.76-2.27-4.13-3.63s-4.11-2.37-5.93-1.94c-1.84.43-5.15,3.46-5.48,5.19-.29,1.52-.63,2.7-1.04,4.15-.25.86-.35,1.85-1.07,2.56-.23.23.09,1.14-.84,1.25.09-.8-.3-1.45-.51-2.19l-1.87-6.33-3.39-10.14-1.79-6.14c-.81-2.76-.51-8.12,1.4-10.62,1.92-2.51,4.4-4.31,6.82-6.23.75-.6,1.46-1.39,2.28-1.78,1-.47,1.58-1.11,2.44-1.72l3.28-2.36,5.76-3.41,7.61-3.64,6.41-2.49,6.82-2.53c7.26-2.69,17.6-3.98,25.39-3.33l9.48.78c1.28.11,2.39.16,3.68.45l2.29.51,1.89.43,3.6,1.08c-.81.53-1.88.59-2.87,1.06l-2.07.98c-.67.32-.98,1.15-.93,1.8.04.6.39,1.36,1.04,1.76l6.82,4.4c1.75,1.13,3.37,2.03,5.34,2.67,1.54.5,2.83,1,4.61.8,1.37-.15,2.81-1.12,3.17-2.65.32-1.36-.28-3.11-.9-4.09-.02-.02-.06-.09-.14-.15.09-.01.11-.12.06-.21l.16.19c.74.11,1.36.47,2.04.9l7.75,4.77,1.82,1.53c1.2,1,2.14,2.07,3.25,3.18,3,3,6.21,5.78,8.33,9.53.6,1.08,1.16,2.04,1.76,3.15l1.89,3.5.58,2.28c.18.7.62,1.91-.01,2.67-1.3.82-3.23.77-4.83,1.17-1.72.43-3.21,1.02-4.97,1.14-.19.01-.35.17-.44.21-.14.05-.12.6.12.59,2.04-.04,3.84-.79,5.78-1.18,1.52-.3,2.92-.46,4.42-.95,3.21,3.59,1.84,5.87,1.9,8.17.07,2.27-.59,4.12-1.29,6.2l-2.16,6.39-2.65,5.95c-2.24,5.03-4.79,9.83-8,14.38.53-2.59.28-5.03-1.61-6.73-.8-.71-1.94-.42-2.83-.48-2.93-.18-4.9,2.49-6.43,5.26l-2.57,4.62c-1.71,2.34-3.06,5.1-2.58,8.05.21,1.3,1.13,2.5,2.38,2.36l2.89-.33c-1.58,1.6-3.77,3.2-5.72,4.51l-2.63,1.75c-2.61,1.74-5.11,3.51-7.98,4.87-4.49,2.11-11.1,5.26-16.45,6.75h-41.21Z" style="fill:#f07f59;"/><path d="M105.27,101.6c2.92.95,2.95,2.04,5.15,4.08,1.16.6,1.89,1.34,2.23,2.76.25,1.05.96,2.1.85,3.37l-.16,1.77c-.1,1.07-.57,2.02.02,3.15l-.76,1.8.02,3.18c.01,1.75.17,3.44.82,5.06.77,1.92-2.79,4.64-5.22,4.73-6.28.21-6.83-5.69-10.77-7.93-.69-.39-1.28-.43-1.48-1.4l-1.5-7.21c1.7-1.73,1.89-3.5,2.32-5.07l1.08-3.98c.42-1.57,1.83-2.37,2.81-3.3,1.42-1.35,2.79-1.59,4.6-1Z" style="fill:#1e2019;"/><path d="M199.28,127.94l3.63-.12c3.19,2.67,1.63,7.8-1.04,10.9-1.44,1.68-2.61,3.6-4.22,5.21s-5.33,3.53-6.96,2.06c-1.4-1.68-.66-4.93.5-6.63,1.44-2.11,2.46-4.01,3.62-6.21,1.05-1.99,2.3-3.98,4.46-5.21Z" style="fill:#1e2019;"/><path d="M174.85,55.24c1.81-.7,3.24-.21,4.81.41,1.59.64,3.74,1.06,4.2,2.21,3,1.48,6.43,3.36,6.25,6.55-.08,1.45-1.56,2.16-2.67,2.25-1.59.13-2.72-.3-4.16-.74-2.1-.64-3.76-1.68-5.61-2.85l-4.24-2.68c-1.18-.74-2.91-1.75-2.88-2.74.02-.53.32-.86.93-1.1l3.37-1.31Z" style="fill:#1e2019;"/><path d="M90.23,74.78c-.19.34-.48.15-.53.04-.06-.15,0-.3.13-.39.1-.06.44-.04.4.35Z" style="fill:#fff;"/><path d="M160.88,132.94v-3.24c0-1.97-1.4-4.18-3.22-5.1-1.92-.97-4.14-1.06-6.2-1.29-1.12-.13-1.8.6-2.62.97-1.34.6-2.22,1.32-2.39,2.85-.19,1.72-.47,3.71.54,5.25.91,1.39,1.89,2.63,2.33,4.2l-2.97.94-8.99,3.23c-2.36.85-4.42,1.8-6.54,3.21l-1.5.99c-.8.53-1.64.6-1.99,1.69l-2.41.12c-.19-.68-.97-1.71-.87-2.32.38-.84-.37-1.39-.4-1.85.17-.73.19-1.64.46-2.33l1.14-2.96c.12-.31.45-1.04.72-1.22.55-.38.33-.8.56-1.25l1.77-3.34c.45-.85.83-1.53,1.29-2.33l1.12-1.96c.3-.52.44-1.07,1.39-.96l.31-1.66c.72-.2,1.02-.71,1.24-1.28,1.26-.48,2.36-1.2,3.14-2.16.85.19,1.44-.33,1.69-1.07l1.4.4c.67-.96,1.66-.96,2.69-1.17.44-.09.95-.52,1.5-.04l.08-.46c.03-.16.45.01.61.21l.27.35c.13.17.31.06.37-.09.04-.1-.12-.39-.05-.47.27-.19.72.22.89.35l.53-.55c.09-.1.32.08.51.23.55-.24,1.11.07,1.51.3.81-.36,1.79-.44,2.52-.04l1.65-.4,2.23.52.71-.39.46.56c1.38-.41,4.21.18,5,.95.59.57,1.33.57,2.07.82.35.12.62.91,1.28.5.48,1.7,2.81,1.81,2.83,3.9,0,.39.05,1.2-.08,1.56-1.07,3.03-4.07,4.24-6.6,5.85Z" style="fill:#f5a88b;"/><path d="M150.96,161.83c-.7-.67-.67-1.66-1.03-2.37-.59-1.17-1.97-1.44-2.86-2.08l1.54.15c.56.05,1.19-.24,1.74-.08,1.08.31,1.9-.27,2.84-.36l2.59-.24,1.63-.3c1.41-.26,2.72-.42,4.11-.72l2.29-.5,4.44-.92c1.17-.24,2.21-.67,3.34-.94,2.72-.66,5.22-1.51,7.73-2.75l6-2.98c.34-.17.77-.12.91.08.52.78-3.24,3.14-5.24,4.28l-3.46,1.96c-1.78,1.01-3.51,1.81-5.47,2.45l-6.19,2.02-3.1.96-7.02,1.57c-.47.1-.92.09-1.42.18l-3.36.6Z" style="fill:#f5a88a;"/><path d="M199.54,95.24c.33-.08.6-.12.7.11s-.02.54-.38.62l-5.06,1.08-12.77,2.37-4.19.73-11.31,2.21-8.42,1.54-6.44,1.26c-4.38.86-8.78,1.64-13.06,3.07-.26-.18-.23-.65-.06-.76,4.28-1.5,8.53-2.16,12.9-3.03l8.71-1.73,9.19-1.65,7.7-1.52,13.79-2.61c1.51-.28,2.93-.38,4.4-.71l4.3-.97Z" style="fill:#4b352d;"/><path d="M137.32,81.6l-.5,3.08c-.21,1.28-.01,3.09,1.15,3.98,1.08.83,2.86,1.2,4.22,1.07l3.02-.27c2.87-.26,4.25-2.95,4.51-5.81l.22-2.54c.12-1.21-.33-1.92-.77-2.87-.85-1.86-2.08-3.11-3.96-4.07-2.54-1.32-5.68-.94-8.05.96l-.57,2.6.72,3.85ZM138.53,75.24c2.19-1.69,6.24-1.05,8.28,1,1.11,1.11,2.06,2.77,2.27,4.34.15,1.09-.19,2.19-.28,3.27-.13,1.57-.74,3.17-1.93,4.2-1.14.98-6.71,1.42-8.58-.26-.91-.82-.89-2.64-.57-3.73.52-1.81.48-3.3-.13-5.09-.43-1.26-.3-2.8.93-3.73Z" style="fill:#42322b;"/><path d="M116.91,67.67c2.58.39,6.66-1.11,8.64-2.99.97-.35,1.6-1.13,2.27-1.8,1.18-1.18,1.15-3.37.11-4.26-.62-.53-1.16-.21-2.03-.15-2.31.16-4.48.13-6.49,1.1-2.04,1-3.89,2.14-5.67,3.57-1.63,1.31,1.42,4.26,3.16,4.52ZM116.92,61.98c2.4-1.75,4.86-2.7,8.05-2.7.98,0,2.14-.32,2.79.45.69.83-.02,2.39-1.53,3.54l-1.77,1.36c-1.97,1.5-4.47,2.44-7.1,2.32-1.18-.05-2.99-1.59-3-2.68-.03-1.44,1.75-1.69,2.56-2.28Z" style="fill:#40302a;"/><path d="M134.81,157.68c-.96,2.24-.28,3.05,1.51,4.92l-2.95-.67c-1.88-.43-3.42-1.38-4.93-2.53-.61-.47-1.24-.97-.95-1.89.71-.01,1.65-.35,2.24-.15.79.27,1.28.18,2.07.2l1.67.04c.46.01.89.39,1.34.07Z" style="fill:#f5a688;"/><path d="M125.7,111.08c1.81-.48,3.46-.75,5.11-1.46.12-.05.39-.05.47-.02s.15.21.2.51c-1.6.93-3.41,1.14-5.24,1.63l-10.11,2.71c-.16.04-.57,0-.67-.06-.14-.08-.12-.39-.05-.6.1-.32.47-.11.68-.16l9.62-2.55Z" style="fill:#46332c;"/><path d="M138.53,75.24c2.18-1.68,6.24-1.05,8.28,1.01,1.1,1.11,2.05,2.78,2.27,4.34.15,1.09-.19,2.19-.28,3.27-.13,1.57-.73,3.18-1.93,4.2-1.15.99-6.72,1.43-8.58-.25-.91-.82-.89-2.63-.57-3.73.53-1.82.48-3.3-.12-5.1-.42-1.25-.29-2.79.93-3.73Z" style="fill:#1e2019;"/><path d="M136.32,162.6l3.84,1.36c.69.25,1.71-.3,2.53-.25,2.98.17,6.81.16,8.27-1.88-.69-.67-.67-1.65-1.04-2.37-.59-1.17-1.96-1.44-2.86-2.08-.97-.1-1.92-.5-2.91-.93-1.5-.38-3.01-.27-4.52.27-1.75-.6-3.62-.31-4.81.95-.96,2.24-.28,3.05,1.5,4.93ZM135.52,158.35c.39-.62,1.55-.65,2.32-.82.96.34,1.74.32,2.5.04,1.12.69,2.29.03,3.36.03,1.87.01,3.86.85,5.38,1.91.16.68.12,1.8.87,2.09-.53.83-1.22.51-1.79.68-2.11.62-4.09.63-6.19.66-1.28.01-2.32.18-3.6-.44-.66-.32-1.23-.41-1.85-1-.78-.76-1.74-1.98-1-3.16Z" style="fill:#3f302a;"/><path d="M137.83,157.53c.96.35,1.75.31,2.5.04,1.13.7,2.29.03,3.36.03,1.87.01,3.87.85,5.38,1.91.16.68.12,1.8.87,2.09-.53.83-1.22.51-1.79.68-2.12.62-4.09.63-6.19.66-1.28.02-2.31.18-3.6-.43-.67-.32-1.23-.41-1.85-1-.78-.76-1.73-1.98-1-3.16.39-.63,1.55-.65,2.31-.82Z" style="fill:#64655c;"/><path d="M124.96,59.28c.98,0,2.15-.33,2.78.44.7.84-.02,2.39-1.53,3.54l-1.77,1.35c-1.97,1.51-4.47,2.45-7.1,2.32-1.18-.06-2.98-1.59-3-2.68-.02-1.44,1.76-1.69,2.56-2.28,2.4-1.76,4.86-2.7,8.05-2.7Z" style="fill:#1e2019;"/><path d="M147,132.38c.91,1.39,1.89,2.63,2.34,4.2l.7,2.53c.54,1.92,3.13,2.96,4.81,2.07,1.18-.63,2.38-1.09,2.91-2.27,1.23-2.73,3.12-3.08,3.12-5.98v-3.24c0-1.96-1.4-4.18-3.21-5.1-1.93-.96-4.14-1.06-6.21-1.28-1.11-.13-1.8.6-2.61.96-1.34.6-2.22,1.32-2.39,2.86-.18,1.72-.47,3.71.54,5.25ZM147.81,126.1c.53-.75,2.04-1.69,2.93-1.79,2.22-.25,4.36.37,6.48.93,2.65,1.95,3.23,4.98,2.76,8.12-.15,1.01-.38,1.92-1.33,2.61-.8.58-2.03,4.73-5.23,4.63-2.17-.07-3.16-2.29-2.98-4.16-.72-.57-.86-1.26-1.2-1.96-.64-1.37-1.76-2.48-2.07-4.03-.26-1.31-.16-3.21.63-4.34Z" style="fill:#40312b;"/><path d="M159.99,133.35l-5.88,1.63-3.67,1.45c-.71-.57-.86-1.26-1.19-1.97-.64-1.36-1.76-2.48-2.07-4.03-.26-1.31-.16-3.22.63-4.34.53-.75,2.03-1.69,2.94-1.79,2.21-.25,4.36.37,6.48.93,2.64,1.95,3.23,4.98,2.76,8.11Z" style="fill:#68685f;"/><path d="M150.44,136.44l3.67-1.45,5.88-1.63c-.15,1.02-.38,1.93-1.34,2.62-.8.58-2.03,4.73-5.23,4.63-2.17-.07-3.17-2.29-2.98-4.16Z" style="fill:#1e2019;"/><line x1="17.77" y1="187.28" x2="19.27" y2="187.28" style="fill:none; stroke:#40312b; stroke-linecap:round; stroke-miterlimit:10;"/><line x1="22.24" y1="187.28" x2="223.01" y2="187.28" style="fill:none; stroke:#40312b; stroke-dasharray:2.97 2.97; stroke-linecap:round; stroke-miterlimit:10;"/><line x1="224.5" y1="187.28" x2="226" y2="187.28" style="fill:none; stroke:#40312b; stroke-linecap:round; stroke-miterlimit:10;"/><line x1="17.77" y1="219.53" x2="226" y2="219.53" style="fill:none; stroke:#90a959; stroke-miterlimit:10;"/><line x1="17.77" y1="246.69" x2="226" y2="246.69" style="fill:none; stroke:#90a959; stroke-miterlimit:10;"/><text transform="translate(89.64 209.54)" style="fill:#5f3d42; font-family:EuclidCircularB-Light, &apos;Euclid Circular B&apos;; font-size:11px; font-weight:300;"><tspan x="0" y="0" style="letter-spacing:-.08em;">1</tspan><tspan x="2.58" y="0" style="letter-spacing:-.1em;"> </tspan><tspan x="4.26" y="0" style="letter-spacing:-.08em;">y</tspan><tspan x="9.27" y="0" style="letter-spacing:-.08em;">ea</tspan><tspan x="21" y="0" style="letter-spacing:-.1em;">r</tspan></text><text transform="translate(89.64 236.78)" style="fill:#5f3d42; font-family:EuclidCircularB-Light, &apos;Euclid Circular B&apos;; font-size:11px; font-weight:300; letter-spacing:-.07em;"><tspan x="0" y="0">Aphids</tspan></text><text transform="translate(89.64 264.15)" style="fill:#5f3d42; font-family:EuclidCircularB-Light, &apos;Euclid Circular B&apos;; font-size:11px; font-weight:300;"><tspan x="0" y="0" style="letter-spacing:-.08em;">In</tspan><tspan x="7.81" y="0" style="letter-spacing:-.09em;"> </tspan><tspan x="9.55" y="0" style="letter-spacing:-.08em;">the ga</tspan><tspan x="38.15" y="0" style="letter-spacing:-.09em;">r</tspan><tspan x="41.06" y="0" style="letter-spacing:-.08em;">den </tspan></text><path d="M219.86,202.64l.54,1.89,1.9-.48c.88-.22,1.5.85.87,1.51l-1.36,1.41,1.36,1.41c.63.65.01,1.73-.87,1.51l-1.9-.48-.54,1.89c-.25.87-1.49.87-1.74,0l-.54-1.89-1.9.48c-.88.22-1.5-.85-.87-1.51l1.36-1.41-1.36-1.41c-.63-.65-.01-1.73.87-1.51l1.9.48.54-1.89c.25-.87,1.49-.87,1.74,0Z" style="fill:#5f3d42;"/><path d="M219.86,229.17l.54,1.89,1.9-.48c.88-.22,1.5.85.87,1.51l-1.36,1.41,1.36,1.41c.63.65.01,1.73-.87,1.51l-1.9-.48-.54,1.89c-.25.87-1.49.87-1.74,0l-.54-1.89-1.9.48c-.88.22-1.5-.85-.87-1.51l1.36-1.41-1.36-1.41c-.63-.65-.01-1.73.87-1.51l1.9.48.54-1.89c.25-.87,1.49-.87,1.74,0Z" style="fill:#5f3d42;"/><path d="M219.86,257.05l.54,1.89,1.9-.48c.88-.22,1.5.85.87,1.51l-1.36,1.41,1.36,1.41c.63.65.01,1.73-.87,1.51l-1.9-.48-.54,1.89c-.25.87-1.49.87-1.74,0l-.54-1.89-1.9.48c-.88.22-1.5-.85-.87-1.51l1.36-1.41-1.36-1.41c-.63-.65-.01-1.73.87-1.51l1.9.48.54-1.89c.25-.87,1.49-.87,1.74,0Z" style="fill:#5f3d42;"/><path d="M209.04,257.05l.54,1.89,1.9-.48c.88-.22,1.5.85.87,1.51l-1.36,1.41,1.36,1.41c.63.65.01,1.73-.87,1.51l-1.9-.48-.54,1.89c-.25.87-1.49.87-1.74,0l-.54-1.89-1.9.48c-.88.22-1.5-.85-.87-1.51l1.36-1.41-1.36-1.41c-.63-.65-.01-1.73.87-1.51l1.9.48.54-1.89c.25-.87,1.49-.87,1.74,0Z" style="fill:#5f3d42;"/><path d="M209.04,229.17l.54,1.89,1.9-.48c.88-.22,1.5.85.87,1.51l-1.36,1.41,1.36,1.41c.63.65.01,1.73-.87,1.51l-1.9-.48-.54,1.89c-.25.87-1.49.87-1.74,0l-.54-1.89-1.9.48c-.88.22-1.5-.85-.87-1.51l1.36-1.41-1.36-1.41c-.63-.65-.01-1.73.87-1.51l1.9.48.54-1.89c.25-.87,1.49-.87,1.74,0Z" style="fill:#5f3d42;"/><path d="M198.21,257.05l.54,1.89,1.9-.48c.88-.22,1.5.85.87,1.51l-1.36,1.41,1.36,1.41c.63.65.01,1.73-.87,1.51l-1.9-.48-.54,1.89c-.25.87-1.49.87-1.74,0l-.54-1.89-1.9.48c-.88.22-1.5-.85-.87-1.51l1.36-1.41-1.36-1.41c-.63-.65-.01-1.73.87-1.51l1.9.48.54-1.89c.25-.87,1.49-.87,1.74,0Z" style="fill:#5f3d42;"/><text transform="translate(26.02 305.3)" style="fill:#5f3d42; font-family:EuclidCircularB-Light, &apos;Euclid Circular B&apos;; font-size:9px; font-weight:300;"><tspan x="0" y="0" style="letter-spacing:-.07em;">Can eat an inc</tspan><tspan x="52.87" y="0" style="letter-spacing:-.09em;">r</tspan><tspan x="55.24" y="0" style="letter-spacing:-.07em;">eadible amou</tspan><tspan x="105.66" y="0" style="letter-spacing:-.08em;">n</tspan><tspan x="110.21" y="0" style="letter-spacing:-.07em;">t </tspan><tspan x="114.41" y="0" style="letter-spacing:-.08em;">o</tspan><tspan x="119.15" y="0" style="letter-spacing:-.1em;">f</tspan><tspan x="121.41" y="0" style="letter-spacing:-.09em;"> </tspan><tspan x="122.84" y="0" style="letter-spacing:-.09em;">f</tspan><tspan x="125.24" y="0" style="letter-spacing:-.07em;">ood </tspan><tspan x="141.47" y="0" style="letter-spacing:-.08em;">e</tspan><tspan x="145.98" y="0" style="letter-spacing:-.08em;">v</tspan><tspan x="150.08" y="0" style="letter-spacing:-.07em;">er</tspan><tspan x="157.18" y="0" style="letter-spacing:-.1em;">y</tspan><tspan x="161.16" y="0" xml:space="preserve" style="letter-spacing:-.07em;"> da</tspan><tspan x="172.8" y="0" style="letter-spacing:-.12em;">y</tspan><tspan x="176.54" y="0" style="letter-spacing:-.08em;">. </tspan><tspan x="0" y="10.8" style="letter-spacing:-.07em;">Som</tspan><tspan x="16.34" y="10.8" style="letter-spacing:-.08em;">e</tspan><tspan x="20.85" y="10.8" style="letter-spacing:-.07em;">times up</tspan><tspan x="51.26" y="10.8" style="letter-spacing:-.09em;"> </tspan><tspan x="52.68" y="10.8" style="letter-spacing:-.08em;">t</tspan><tspan x="55.25" y="10.8" style="letter-spacing:-.07em;">o 50 aphids a da</tspan><tspan x="115.17" y="10.8" style="letter-spacing:-.12em;">y</tspan><tspan x="118.91" y="10.8" style="letter-spacing:-.07em;">.</tspan></text></g></svg>